# xmcd
#
# Track frame offsets: 
#        150
#        10982
#        23432
#        33627
#        44077
#        56775
#        69265
#        79567
#        92322
#        104095
#        115290
#        125287
#        135900
#        148780
#        159115
#        173305
#
# Disc length: 2493 seconds
#
# Revision: 0
# Processed by: cddbd v1.5.1PL2 Copyright (c) Steve Scherf et al.
# Submitted via: ExactAudioCopy v0.95b4
#
DISCID=c309bb10
DTITLE=Jimmy Reed - The Very Best Of Jimmy Reed
DYEAR=2003
DGENRE=Blues
TTITLE0=Baby What You Want Me To Do
TTITLE1=You Got Me Dizzy
TTITLE2=I Ain't Got You
TTITLE3=Take Out Some Insurance
TTITLE4=Shame, Shame, Shame
TTITLE5=Big Boss Man
TTITLE6=Goin' To New York
TTITLE7=The Sun Is Shining
TTITLE8=Bright Lights, Big City
TTITLE9=Hush, Hush
TTITLE10=Ain't That Loving You Baby
TTITLE11=Aw Shucks, Hush Your Mouth
TTITLE12=Honest I Do
TTITLE13=Found Love
TTITLE14=Little Rain
TTITLE15=You Don't Have To Go
EXTD=
EXTT0=BABY WHAT YOU WANT ME TO DO
EXTT1=
EXTT2=
EXTT3=
EXTT4=
EXTT5=
EXTT6=
EXTT7=
EXTT8=
EXTT9=
EXTT10=
EXTT11=
EXTT12=
EXTT13=
EXTT14=
EXTT15=
PLAYORDER=
